<svg xmlns="http://www.w3.org/2000/svg" viewBox="0 0 40 40">
  <circle cx="20" cy="20" r="20" fill="#142117"/>
  <g transform="translate(4,4)" fill="none" stroke="#D3AE5C" stroke-width="2" stroke-linecap="round" stroke-linejoin="round">
    <path d="M14 10c-2-4-1-8 2-9"/>
    <path d="M16 1c3 1 4 5 2 9"/>
    <path d="M12 12c0-3 3-5 6-5s6 2 6 5c0 5-2 9-6 9s-6-4-6-9Z"/>
    <path d="M11 13c-2-1-3-3-2-5"/>
    <path d="M23 13c2-1 3-3 2-5"/>
    <path d="M17 21c0 2 .5 4 1 5"/>
    <path d="M19 21c0 2 .5 4 1 5"/>
    <path d="M31 8v4M29 10h4M27 15l1.4 1.4M33 15l-1.4 1.4" stroke-width="1.6"/>
  </g>
</svg>
